<svg width="24" height="24" viewBox="0 0 24 24" fill="none" xmlns="http://www.w3.org/2000/svg">
<path d="M8 10.0769H16" stroke="white" stroke-width="1.5" stroke-linecap="round" stroke-linejoin="round"/>
<path d="M7 13.9231H8" stroke="white" stroke-width="1.5" stroke-linecap="round" stroke-linejoin="round"/>
<path d="M16 13.9231H17" stroke="white" stroke-width="1.5" stroke-linecap="round" stroke-linejoin="round"/>
<path d="M7 17.7692H17M3 17.7692V11.4332C3 11.1728 3.05502 10.915 3.16171 10.6757L5.4805 5.47325C5.79566 4.76616 6.51874 4.30771 7.31879 4.30771H16.6812C17.4813 4.30771 18.2043 4.76616 18.5195 5.47325L20.8383 10.6757C20.945 10.915 21 11.1728 21 11.4332V17.7692H3ZM3 17.7692V20.0769C3 20.3956 3.26863 20.6539 3.6 20.6539H6.4C6.73137 20.6539 7 20.3956 7 20.0769V17.7692H3ZM3 17.7692H7H3ZM21 17.7692V20.0769C21 20.3956 20.7314 20.6539 20.4 20.6539H17.6C17.2686 20.6539 17 20.3956 17 20.0769V17.7692H21ZM21 17.7692H17H21Z" stroke="white" stroke-width="1.5"/>
</svg>
