<svg width="24" height="24" viewBox="0 0 24 24" fill="none" xmlns="http://www.w3.org/2000/svg">
<path d="M12 13.5C12.5522 13.5 13 13.0522 13 12.5C13 11.9478 12.5522 11.5 12 11.5C11.4478 11.5 11 11.9478 11 12.5C11 13.0522 11.4478 13.5 12 13.5Z" fill="#3F60C5" stroke="#3F60C5" stroke-width="1.5" stroke-linecap="round" stroke-linejoin="round"/>
<path d="M12 19.5C12.5522 19.5 13 19.0522 13 18.5C13 17.9478 12.5522 17.5 12 17.5C11.4478 17.5 11 17.9478 11 18.5C11 19.0522 11.4478 19.5 12 19.5Z" fill="#3F60C5" stroke="#3F60C5" stroke-width="1.5" stroke-linecap="round" stroke-linejoin="round"/>
<path d="M12 7C12.5522 7 13 6.55228 13 6C13 5.44772 12.5522 5 12 5C11.4478 5 11 5.44772 11 6C11 6.55228 11.4478 7 12 7Z" fill="#3F60C5" stroke="#3F60C5" stroke-width="1.5" stroke-linecap="round" stroke-linejoin="round"/>
</svg>
