<svg width="164" height="46" viewBox="0 0 164 46" fill="none" xmlns="http://www.w3.org/2000/svg">
<path d="M44.184 15.2L41.784 19.664L39.432 15.2H33.648L38.904 23.432L33.048 32H38.832L41.736 26.84L44.544 32H50.352L44.616 23.432L49.992 15.2H44.184ZM55.0706 29.288H63.9506L63.8306 25.856H55.2146L55.0706 29.288ZM59.4626 22.088L61.6946 27.128L61.4306 28.328L63.3506 32H68.6306L59.4626 14.072L50.3186 32H55.5986L57.5426 28.16L57.2546 27.128L59.4626 22.088ZM73.7081 23.6C73.7081 22.656 73.9161 21.856 74.3321 21.2C74.7641 20.528 75.3321 20.024 76.0361 19.688C76.7401 19.336 77.5161 19.16 78.3641 19.16C79.1641 19.16 79.8601 19.264 80.4521 19.472C81.0441 19.68 81.5721 19.952 82.0361 20.288C82.5001 20.608 82.9081 20.952 83.2601 21.32V16.424C82.6041 15.928 81.8761 15.528 81.0761 15.224C80.2921 14.92 79.2841 14.768 78.0521 14.768C76.6601 14.768 75.3801 14.976 74.2121 15.392C73.0441 15.808 72.0441 16.408 71.2121 17.192C70.3801 17.976 69.7321 18.912 69.2681 20C68.8201 21.072 68.5961 22.272 68.5961 23.6C68.5961 24.928 68.8201 26.136 69.2681 27.224C69.7321 28.296 70.3801 29.224 71.2121 30.008C72.0441 30.792 73.0441 31.392 74.2121 31.808C75.3801 32.224 76.6601 32.432 78.0521 32.432C79.2841 32.432 80.2921 32.28 81.0761 31.976C81.8761 31.656 82.6041 31.256 83.2601 30.776V25.88C82.9081 26.248 82.5001 26.6 82.0361 26.936C81.5721 27.256 81.0441 27.52 80.4521 27.728C79.8601 27.936 79.1641 28.04 78.3641 28.04C77.5161 28.04 76.7401 27.872 76.0361 27.536C75.3321 27.184 74.7641 26.68 74.3321 26.024C73.9161 25.352 73.7081 24.544 73.7081 23.6ZM89.0784 29.288H97.9584L97.8384 25.856H89.2224L89.0784 29.288ZM93.4704 22.088L95.7024 27.128L95.4384 28.328L97.3584 32H102.638L93.4704 14.072L84.3264 32H89.6064L91.5504 28.16L91.2624 27.128L93.4704 22.088ZM105.419 25.304H118.499V21.152H105.419V25.304ZM115.571 15.2V32H120.227V15.2H115.571ZM104.291 15.2V32H108.947V15.2H104.291ZM139.273 20L139.393 14.36L123.793 27.2L123.673 32.84L139.273 20ZM128.137 15.2H123.673V32.84L128.137 28.448V15.2ZM139.393 14.36L134.929 18.944V32H139.393V14.36ZM147.765 24.272L152.085 30.44L156.429 24.272L157.365 32H162.309L159.405 14.36L152.085 24.032L144.789 14.36L141.885 32H146.829L147.765 24.272Z" fill="#AFB1CC"/>
<path d="M21.5408 19.5122L28.4675 23.3456M21.5408 19.5122C24.0814 14.9216 22.4195 9.14063 17.8289 6.60008C13.2383 4.05953 7.45739 5.7214 4.91684 10.312C2.37629 14.9026 4.03817 20.6835 8.62874 23.2241C13.2193 25.7646 19.0003 24.1027 21.5408 19.5122Z" stroke="#AFB1CC" stroke-width="6" stroke-linecap="round" stroke-linejoin="round"/>
<path d="M21.2425 27.0312L28.3384 23.521M21.2425 27.0312C18.9161 22.3285 13.2179 20.402 8.51513 22.7283C3.81237 25.0547 1.88591 30.7529 4.21225 35.4557C6.5386 40.1584 12.2368 42.0849 16.9396 39.7586C21.6423 37.4322 23.5688 31.734 21.2425 27.0312Z" stroke="#AFB1CC" stroke-width="6" stroke-linecap="round" stroke-linejoin="round"/>
</svg>
